<mxfile host="app.diagrams.net" agent="Mozilla/5.0 (X11; Ubuntu; Linux x86_64; rv:136.0) Gecko/20100101 Firefox/136.0" version="28.0.9">
  <diagram name="Page-1" id="xIOkTCL3K24IWR9tix57">
    <mxGraphModel dx="786" dy="1880" grid="1" gridSize="10" guides="1" tooltips="1" connect="1" arrows="1" fold="1" page="1" pageScale="1" pageWidth="827" pageHeight="1169" math="0" shadow="0">
      <root>
        <mxCell id="0" />
        <mxCell id="1" style="" parent="0" />
        <mxCell id="4FT238xs0-JWQUUgrjXr-94" value="" style="rounded=1;whiteSpace=wrap;html=1;shadow=1;treeFolding=0;treeMoving=0;fixDash=0;collapsible=0;recursiveResize=1;expand=1;backgroundOutline=0;movableLabel=0;autosize=0;fixedWidth=0;comic=0;" parent="1" vertex="1">
          <mxGeometry x="190" y="210" width="440" height="260" as="geometry" />
        </mxCell>
        <mxCell id="4FT238xs0-JWQUUgrjXr-66" value="" style="rounded=1;whiteSpace=wrap;html=1;shadow=1;treeFolding=0;treeMoving=0;fixDash=0;collapsible=0;recursiveResize=1;expand=1;backgroundOutline=0;movableLabel=0;autosize=0;fixedWidth=0;comic=0;" parent="1" vertex="1">
          <mxGeometry x="200" y="220" width="420" height="230" as="geometry" />
        </mxCell>
        <mxCell id="4FT238xs0-JWQUUgrjXr-63" value="" style="rounded=1;whiteSpace=wrap;html=1;shadow=1;glass=0;perimeterSpacing=1;" parent="1" vertex="1">
          <mxGeometry x="217.5" y="230" width="385" height="200" as="geometry" />
        </mxCell>
        <mxCell id="KcWclJ4Hr2_HyBvXS7Jj-65" style="edgeStyle=orthogonalEdgeStyle;rounded=0;orthogonalLoop=1;jettySize=auto;html=1;exitX=0.55;exitY=0.95;exitDx=0;exitDy=0;exitPerimeter=0;entryX=0.5;entryY=0;entryDx=0;entryDy=0;" parent="1" source="KcWclJ4Hr2_HyBvXS7Jj-18" target="4FT238xs0-JWQUUgrjXr-1" edge="1">
          <mxGeometry relative="1" as="geometry">
            <Array as="points">
              <mxPoint x="422" y="180" />
              <mxPoint x="270" y="180" />
            </Array>
          </mxGeometry>
        </mxCell>
        <mxCell id="KcWclJ4Hr2_HyBvXS7Jj-18" value="" style="ellipse;shape=cloud;whiteSpace=wrap;html=1;rotation=0;" parent="1" vertex="1">
          <mxGeometry x="210" y="-140" width="386.25" height="307.5" as="geometry" />
        </mxCell>
        <mxCell id="4FT238xs0-JWQUUgrjXr-21" style="edgeStyle=orthogonalEdgeStyle;rounded=0;orthogonalLoop=1;jettySize=auto;html=1;exitX=0.5;exitY=1;exitDx=0;exitDy=0;entryX=0;entryY=0.5;entryDx=0;entryDy=0;shadow=1;" parent="1" source="4FT238xs0-JWQUUgrjXr-1" target="4FT238xs0-JWQUUgrjXr-4" edge="1">
          <mxGeometry relative="1" as="geometry" />
        </mxCell>
        <mxCell id="4FT238xs0-JWQUUgrjXr-22" style="edgeStyle=orthogonalEdgeStyle;rounded=0;orthogonalLoop=1;jettySize=auto;html=1;exitX=1;exitY=0.5;exitDx=0;exitDy=0;entryX=0;entryY=0.5;entryDx=0;entryDy=0;shadow=1;" parent="1" source="4FT238xs0-JWQUUgrjXr-1" target="4FT238xs0-JWQUUgrjXr-2" edge="1">
          <mxGeometry relative="1" as="geometry" />
        </mxCell>
        <mxCell id="4FT238xs0-JWQUUgrjXr-1" value="Prometheus" style="html=1;whiteSpace=wrap;shadow=1;" parent="1" vertex="1">
          <mxGeometry x="230" y="270" width="80" height="50" as="geometry" />
        </mxCell>
        <mxCell id="4FT238xs0-JWQUUgrjXr-69" style="edgeStyle=orthogonalEdgeStyle;rounded=0;orthogonalLoop=1;jettySize=auto;html=1;exitX=1;exitY=0.25;exitDx=0;exitDy=0;entryX=0;entryY=0.75;entryDx=0;entryDy=0;shadow=1;" parent="1" source="4FT238xs0-JWQUUgrjXr-2" target="4FT238xs0-JWQUUgrjXr-57" edge="1">
          <mxGeometry relative="1" as="geometry" />
        </mxCell>
        <mxCell id="4FT238xs0-JWQUUgrjXr-70" style="edgeStyle=orthogonalEdgeStyle;rounded=0;orthogonalLoop=1;jettySize=auto;html=1;exitX=1;exitY=0.75;exitDx=0;exitDy=0;entryX=0;entryY=0.25;entryDx=0;entryDy=0;shadow=1;" parent="1" source="4FT238xs0-JWQUUgrjXr-2" target="4FT238xs0-JWQUUgrjXr-58" edge="1">
          <mxGeometry relative="1" as="geometry" />
        </mxCell>
        <mxCell id="4FT238xs0-JWQUUgrjXr-2" value="&lt;div&gt;Grafana&lt;/div&gt;" style="html=1;whiteSpace=wrap;shadow=1;" parent="1" vertex="1">
          <mxGeometry x="370" y="270" width="80" height="50" as="geometry" />
        </mxCell>
        <mxCell id="4FT238xs0-JWQUUgrjXr-4" value="TSDB" style="shape=cylinder;whiteSpace=wrap;html=1;boundedLbl=1;backgroundOutline=1;shadow=1;" parent="1" vertex="1">
          <mxGeometry x="310" y="330" width="60" height="80" as="geometry" />
        </mxCell>
        <mxCell id="4FT238xs0-JWQUUgrjXr-57" value="&lt;div&gt;Dashboard&lt;/div&gt;" style="shape=hexagon;perimeter=hexagonPerimeter2;whiteSpace=wrap;html=1;fixedSize=1;shadow=1;" parent="1" vertex="1">
          <mxGeometry x="460" y="237.5" width="120" height="40" as="geometry" />
        </mxCell>
        <mxCell id="KcWclJ4Hr2_HyBvXS7Jj-16" style="edgeStyle=orthogonalEdgeStyle;rounded=0;orthogonalLoop=1;jettySize=auto;html=1;exitX=1;exitY=0.5;exitDx=0;exitDy=0;" parent="1" source="4FT238xs0-JWQUUgrjXr-58" target="KcWclJ4Hr2_HyBvXS7Jj-9" edge="1">
          <mxGeometry relative="1" as="geometry">
            <Array as="points">
              <mxPoint x="660" y="335" />
              <mxPoint x="660" y="378" />
            </Array>
          </mxGeometry>
        </mxCell>
        <mxCell id="4FT238xs0-JWQUUgrjXr-58" value="&lt;div&gt;Alertas&lt;/div&gt;" style="shape=hexagon;perimeter=hexagonPerimeter2;whiteSpace=wrap;html=1;fixedSize=1;shadow=1;" parent="1" vertex="1">
          <mxGeometry x="460" y="315" width="120" height="40" as="geometry" />
        </mxCell>
        <mxCell id="4FT238xs0-JWQUUgrjXr-64" value="&lt;div&gt;Hardware&lt;/div&gt;" style="text;html=1;align=center;verticalAlign=middle;resizable=0;points=[];autosize=1;strokeColor=none;fillColor=none;shadow=1;" parent="1" vertex="1">
          <mxGeometry x="424" y="450" width="80" height="30" as="geometry" />
        </mxCell>
        <mxCell id="4FT238xs0-JWQUUgrjXr-65" value="Host OS" style="text;html=1;align=center;verticalAlign=middle;resizable=0;points=[];autosize=1;strokeColor=none;fillColor=none;shadow=1;" parent="1" vertex="1">
          <mxGeometry x="414" y="430" width="70" height="30" as="geometry" />
        </mxCell>
        <mxCell id="4FT238xs0-JWQUUgrjXr-80" value="&lt;div&gt;&lt;b&gt;Visualização&lt;/b&gt;&lt;/div&gt;" style="html=1;dashed=0;whiteSpace=wrap;shape=mxgraph.dfd.start;shadow=1;" parent="1" vertex="1">
          <mxGeometry x="680" y="242.5" width="110" height="30" as="geometry" />
        </mxCell>
        <mxCell id="4FT238xs0-JWQUUgrjXr-82" style="edgeStyle=orthogonalEdgeStyle;rounded=0;orthogonalLoop=1;jettySize=auto;html=1;exitX=1;exitY=0.5;exitDx=0;exitDy=0;entryX=0;entryY=0.5;entryDx=0;entryDy=0;entryPerimeter=0;shadow=1;" parent="1" source="4FT238xs0-JWQUUgrjXr-57" target="4FT238xs0-JWQUUgrjXr-80" edge="1">
          <mxGeometry relative="1" as="geometry" />
        </mxCell>
        <mxCell id="4FT238xs0-JWQUUgrjXr-95" value="&lt;div&gt;Docker Engine&lt;/div&gt;" style="text;html=1;align=center;verticalAlign=middle;resizable=0;points=[];autosize=1;strokeColor=none;fillColor=none;" parent="1" vertex="1">
          <mxGeometry x="404" y="410" width="100" height="30" as="geometry" />
        </mxCell>
        <mxCell id="KcWclJ4Hr2_HyBvXS7Jj-2" value="&lt;div&gt;&lt;font style=&quot;font-size: 9px;&quot;&gt;Zabbix Agent&lt;/font&gt;&lt;/div&gt;" style="ellipse;whiteSpace=wrap;html=1;aspect=fixed;shadow=1;" parent="1" vertex="1">
          <mxGeometry x="303.75" y="23.75" width="40" height="40" as="geometry" />
        </mxCell>
        <mxCell id="KcWclJ4Hr2_HyBvXS7Jj-9" value="" style="rounded=1;whiteSpace=wrap;html=1;shadow=1;glass=0;perimeterSpacing=1;" parent="1" vertex="1">
          <mxGeometry x="680" y="302.5" width="110" height="150" as="geometry" />
        </mxCell>
        <mxCell id="KcWclJ4Hr2_HyBvXS7Jj-10" value="Email" style="html=1;dashed=0;whiteSpace=wrap;shape=mxgraph.dfd.start;shadow=1;" parent="1" vertex="1">
          <mxGeometry x="695" y="332.5" width="80" height="30" as="geometry" />
        </mxCell>
        <mxCell id="KcWclJ4Hr2_HyBvXS7Jj-11" value="&lt;div&gt;Aplicativos Terceiros&lt;/div&gt;" style="html=1;dashed=0;whiteSpace=wrap;shape=mxgraph.dfd.start;shadow=1;" parent="1" vertex="1">
          <mxGeometry x="695" y="372.5" width="80" height="30" as="geometry" />
        </mxCell>
        <mxCell id="KcWclJ4Hr2_HyBvXS7Jj-12" value="&lt;div&gt;etc.&lt;/div&gt;" style="html=1;dashed=0;whiteSpace=wrap;shape=mxgraph.dfd.start;shadow=1;" parent="1" vertex="1">
          <mxGeometry x="695" y="412.5" width="80" height="30" as="geometry" />
        </mxCell>
        <mxCell id="KcWclJ4Hr2_HyBvXS7Jj-13" value="&lt;div&gt;&lt;b&gt;Notificações&lt;/b&gt;&lt;/div&gt;" style="text;html=1;align=center;verticalAlign=middle;resizable=0;points=[];autosize=1;strokeColor=none;fillColor=none;" parent="1" vertex="1">
          <mxGeometry x="690" y="302.5" width="90" height="30" as="geometry" />
        </mxCell>
        <mxCell id="KcWclJ4Hr2_HyBvXS7Jj-19" value="&lt;div&gt;&lt;font style=&quot;font-size: 9px;&quot;&gt;Zabbix Agent&lt;/font&gt;&lt;/div&gt;" style="ellipse;whiteSpace=wrap;html=1;aspect=fixed;shadow=1;" parent="1" vertex="1">
          <mxGeometry x="374" y="-31.25" width="40" height="40" as="geometry" />
        </mxCell>
        <mxCell id="KcWclJ4Hr2_HyBvXS7Jj-21" value="&lt;div&gt;&lt;font style=&quot;font-size: 9px;&quot;&gt;Zabbix Agent&lt;/font&gt;&lt;/div&gt;" style="ellipse;whiteSpace=wrap;html=1;aspect=fixed;shadow=1;" parent="1" vertex="1">
          <mxGeometry x="444" y="-10" width="40" height="40" as="geometry" />
        </mxCell>
        <mxCell id="KcWclJ4Hr2_HyBvXS7Jj-49" style="edgeStyle=orthogonalEdgeStyle;rounded=0;orthogonalLoop=1;jettySize=auto;html=1;exitX=0.5;exitY=1;exitDx=0;exitDy=0;entryX=0.5;entryY=0;entryDx=0;entryDy=0;" parent="1" source="KcWclJ4Hr2_HyBvXS7Jj-24" target="KcWclJ4Hr2_HyBvXS7Jj-2" edge="1">
          <mxGeometry relative="1" as="geometry" />
        </mxCell>
        <mxCell id="KcWclJ4Hr2_HyBvXS7Jj-24" value="Computador" style="rhombus;whiteSpace=wrap;html=1;" parent="1" vertex="1">
          <mxGeometry x="280" y="-60" width="87.5" height="50" as="geometry" />
        </mxCell>
        <mxCell id="KcWclJ4Hr2_HyBvXS7Jj-48" style="edgeStyle=orthogonalEdgeStyle;rounded=0;orthogonalLoop=1;jettySize=auto;html=1;exitX=0;exitY=0.5;exitDx=0;exitDy=0;entryX=0.5;entryY=0;entryDx=0;entryDy=0;" parent="1" source="KcWclJ4Hr2_HyBvXS7Jj-26" target="KcWclJ4Hr2_HyBvXS7Jj-31" edge="1">
          <mxGeometry relative="1" as="geometry" />
        </mxCell>
        <mxCell id="KcWclJ4Hr2_HyBvXS7Jj-26" value="&lt;div&gt;Servidor&lt;/div&gt;" style="rhombus;whiteSpace=wrap;html=1;" parent="1" vertex="1">
          <mxGeometry x="504" y="23.75" width="67.5" height="50" as="geometry" />
        </mxCell>
        <mxCell id="KcWclJ4Hr2_HyBvXS7Jj-44" style="edgeStyle=orthogonalEdgeStyle;rounded=0;orthogonalLoop=1;jettySize=auto;html=1;exitX=0.5;exitY=1;exitDx=0;exitDy=0;entryX=1;entryY=0.5;entryDx=0;entryDy=0;" parent="1" source="KcWclJ4Hr2_HyBvXS7Jj-28" target="KcWclJ4Hr2_HyBvXS7Jj-21" edge="1">
          <mxGeometry relative="1" as="geometry" />
        </mxCell>
        <mxCell id="KcWclJ4Hr2_HyBvXS7Jj-28" value="&lt;div&gt;Smartphone&lt;/div&gt;" style="rhombus;whiteSpace=wrap;html=1;" parent="1" vertex="1">
          <mxGeometry x="460" y="-81.25" width="89.75" height="50" as="geometry" />
        </mxCell>
        <mxCell id="KcWclJ4Hr2_HyBvXS7Jj-35" style="edgeStyle=orthogonalEdgeStyle;rounded=0;orthogonalLoop=1;jettySize=auto;html=1;exitX=0.5;exitY=1;exitDx=0;exitDy=0;entryX=0.5;entryY=0;entryDx=0;entryDy=0;" parent="1" source="KcWclJ4Hr2_HyBvXS7Jj-30" target="KcWclJ4Hr2_HyBvXS7Jj-19" edge="1">
          <mxGeometry relative="1" as="geometry" />
        </mxCell>
        <mxCell id="KcWclJ4Hr2_HyBvXS7Jj-30" value="IoT" style="rhombus;whiteSpace=wrap;html=1;" parent="1" vertex="1">
          <mxGeometry x="374" y="-100" width="40" height="40" as="geometry" />
        </mxCell>
        <mxCell id="KcWclJ4Hr2_HyBvXS7Jj-31" value="&lt;div&gt;&lt;font style=&quot;font-size: 9px;&quot;&gt;Zabbix Agent&lt;/font&gt;&lt;/div&gt;" style="ellipse;whiteSpace=wrap;html=1;aspect=fixed;shadow=1;" parent="1" vertex="1">
          <mxGeometry x="460" y="73.75" width="40" height="40" as="geometry" />
        </mxCell>
        <mxCell id="KcWclJ4Hr2_HyBvXS7Jj-54" style="edgeStyle=orthogonalEdgeStyle;rounded=0;orthogonalLoop=1;jettySize=auto;html=1;exitX=0;exitY=1;exitDx=0;exitDy=0;entryX=0.585;entryY=0.943;entryDx=0;entryDy=0;entryPerimeter=0;" parent="1" source="KcWclJ4Hr2_HyBvXS7Jj-21" target="KcWclJ4Hr2_HyBvXS7Jj-18" edge="1">
          <mxGeometry relative="1" as="geometry" />
        </mxCell>
        <mxCell id="KcWclJ4Hr2_HyBvXS7Jj-55" style="edgeStyle=orthogonalEdgeStyle;rounded=0;orthogonalLoop=1;jettySize=auto;html=1;exitX=1;exitY=1;exitDx=0;exitDy=0;entryX=0.388;entryY=0.888;entryDx=0;entryDy=0;entryPerimeter=0;" parent="1" source="KcWclJ4Hr2_HyBvXS7Jj-2" target="KcWclJ4Hr2_HyBvXS7Jj-18" edge="1">
          <mxGeometry relative="1" as="geometry">
            <Array as="points">
              <mxPoint x="338" y="80" />
              <mxPoint x="360" y="80" />
            </Array>
          </mxGeometry>
        </mxCell>
        <mxCell id="KcWclJ4Hr2_HyBvXS7Jj-56" style="edgeStyle=orthogonalEdgeStyle;rounded=0;orthogonalLoop=1;jettySize=auto;html=1;exitX=0;exitY=1;exitDx=0;exitDy=0;entryX=0.652;entryY=0.933;entryDx=0;entryDy=0;entryPerimeter=0;" parent="1" source="KcWclJ4Hr2_HyBvXS7Jj-31" target="KcWclJ4Hr2_HyBvXS7Jj-18" edge="1">
          <mxGeometry relative="1" as="geometry" />
        </mxCell>
        <mxCell id="KcWclJ4Hr2_HyBvXS7Jj-64" style="edgeStyle=orthogonalEdgeStyle;rounded=0;orthogonalLoop=1;jettySize=auto;html=1;exitX=0.5;exitY=1;exitDx=0;exitDy=0;entryX=0.474;entryY=0.94;entryDx=0;entryDy=0;entryPerimeter=0;" parent="1" source="KcWclJ4Hr2_HyBvXS7Jj-19" target="KcWclJ4Hr2_HyBvXS7Jj-18" edge="1">
          <mxGeometry relative="1" as="geometry" />
        </mxCell>
        <mxCell id="KcWclJ4Hr2_HyBvXS7Jj-66" value="&lt;b&gt;Rede&lt;/b&gt;" style="text;html=1;align=center;verticalAlign=middle;resizable=0;points=[];autosize=1;strokeColor=none;fillColor=none;" parent="1" vertex="1">
          <mxGeometry x="260" y="73.75" width="50" height="30" as="geometry" />
        </mxCell>
      </root>
    </mxGraphModel>
  </diagram>
</mxfile>
